<svg width="1728" height="701" viewBox="0 0 1728 701" fill="none" xmlns="http://www.w3.org/2000/svg">
<g clip-path="url(#clip0_761_2)">
<rect width="1728" height="701" fill="white"/>
<rect width="1728" height="701" fill="#E9E3D9"/>
<circle cx="524" cy="683" r="561" fill="#1D2F27"/>
<path d="M408.883 422V421.023L414.449 409.305H423.531V279.422L442.086 270.633H443.062V409.305H509.762V410.281L504.195 422H408.883ZM543.66 425.906C531.355 425.06 521.883 421.935 515.242 416.531C507.169 409.891 503.133 400.223 503.133 387.527V342.02L543.66 310.672C555.965 311.518 565.438 314.643 572.078 320.047C580.151 326.622 584.188 336.29 584.188 349.051L524.129 397.586C525.301 400.841 526.928 403.348 529.012 405.105C533.243 408.686 538.061 410.477 543.465 410.477C549.129 410.477 554.272 408.491 558.895 404.52C562.736 401.199 564.656 395.535 564.656 387.527L583.211 378.738H584.188V394.559L543.66 425.906ZM522.664 383.23L564.656 349.148C564.656 340.945 562.508 335.053 558.211 331.473C553.979 327.892 549.129 326.102 543.66 326.102C537.345 326.102 532.267 328.087 528.426 332.059C524.585 336.03 522.664 341.694 522.664 349.051V383.23ZM642.012 425.906C629.707 425.06 620.234 421.935 613.594 416.531C605.521 409.891 601.484 400.223 601.484 387.527V342.02L642.012 310.672C654.316 311.518 663.789 314.643 670.43 320.047C678.503 326.622 682.539 336.29 682.539 349.051L622.48 397.586C623.652 400.841 625.28 403.348 627.363 405.105C631.595 408.686 636.413 410.477 641.816 410.477C647.48 410.477 652.624 408.491 657.246 404.52C661.087 401.199 663.008 395.535 663.008 387.527L681.562 378.738H682.539V394.559L642.012 425.906ZM621.016 383.23L663.008 349.148C663.008 340.945 660.859 335.053 656.562 331.473C652.331 327.892 647.48 326.102 642.012 326.102C635.697 326.102 630.618 328.087 626.777 332.059C622.936 336.03 621.016 341.694 621.016 349.051V383.23ZM895.355 410.477C902.191 410.477 907.27 408.491 910.59 404.52C914.431 399.897 916.352 394.135 916.352 387.234C916.352 379.292 914.236 373.432 910.004 369.656C905.967 366.076 901.085 364.285 895.355 364.285C888.52 364.285 883.441 366.271 880.121 370.242C876.28 374.865 874.359 380.529 874.359 387.234C874.359 395.372 876.475 401.329 880.707 405.105C884.809 408.686 889.691 410.477 895.355 410.477ZM895.355 425.906C883.246 425.06 873.773 421.935 866.938 416.531C858.865 410.151 854.828 400.483 854.828 387.527V380.203L895.355 348.855C903.559 349.441 910.557 351.069 916.352 353.738V349.051C916.352 341.173 914.236 335.314 910.004 331.473C905.967 327.892 901.085 326.102 895.355 326.102C888.975 326.102 883.897 328.087 880.121 332.059L874.75 326.59L895.355 310.672C907.66 311.518 917.133 314.643 923.773 320.047C931.846 326.622 935.883 336.29 935.883 349.051V417.117L917.328 425.906H916.352V409.598L895.355 425.906ZM953.18 425.906V342.02L993.707 310.672C1006.01 311.518 1015.48 314.643 1022.12 320.047C1030.2 326.622 1034.23 336.29 1034.23 349.051V417.117L1015.68 425.906H1014.7V349.051C1014.7 340.913 1012.59 335.053 1008.36 331.473C1004.12 327.892 999.241 326.102 993.707 326.102C987.587 326.102 982.509 328.087 978.473 332.059C974.632 335.835 972.711 341.499 972.711 349.051V417.117L954.156 425.906H953.18ZM1077.41 405.105C1081.71 408.686 1086.49 410.477 1091.77 410.477C1097.1 410.477 1102.28 408.491 1107.29 404.52C1111.13 401.329 1113.05 395.665 1113.05 387.527V349.051C1113.05 340.913 1110.91 335.053 1106.61 331.473C1102.38 327.892 1097.53 326.102 1092.06 326.102C1085.74 326.102 1080.67 328.087 1076.82 332.059C1072.98 336.03 1071.06 341.694 1071.06 349.051V387.527C1071.06 395.73 1073.18 401.59 1077.41 405.105ZM1092.06 425.906C1079.75 425.06 1070.28 421.935 1063.64 416.531C1055.57 409.891 1051.53 400.223 1051.53 387.527V342.02L1092.06 310.672C1104.36 311.518 1113.84 314.643 1120.48 320.047C1128.55 326.557 1132.59 336.225 1132.59 349.051V434.598L1092.06 465.945C1078.45 465.034 1069.04 461.974 1063.84 456.766L1077.41 445.145C1081.25 448.725 1086.1 450.516 1091.96 450.516C1098.02 450.516 1103.13 448.53 1107.29 444.559C1111.13 440.913 1113.05 435.249 1113.05 427.566V409.695L1092.06 425.906Z" fill="#B0AC93"/>
<path d="M740.363 425.906C728.059 425.06 718.586 421.935 711.945 416.531C703.872 409.956 699.836 400.288 699.836 387.527V319.461L718.391 310.672H719.367V387.527C719.367 395.665 721.483 401.525 725.715 405.105C729.947 408.686 734.829 410.477 740.363 410.477C746.483 410.477 751.561 408.491 755.598 404.52C759.439 400.743 761.359 395.079 761.359 387.527V319.461L779.914 310.672H780.891V387.527C780.891 395.665 783.007 401.525 787.238 405.105C791.47 408.686 796.353 410.477 801.887 410.477C808.007 410.477 813.085 408.491 817.121 404.52C820.962 400.743 822.883 395.079 822.883 387.527V319.461L841.438 310.672H842.414V394.559L801.887 425.906C789.452 425.06 779.979 421.935 773.469 416.531C770.083 413.732 767.382 410.411 765.363 406.57L740.363 425.906Z" fill="#94120A"/>
<circle cx="1250.5" cy="310.5" r="141.5" fill="#94120A"/>
<circle cx="1728" cy="-13" r="561" fill="#1D2F27"/>
<path d="M1243.94 425.906C1228.77 425.906 1216.73 421.186 1207.81 411.746C1199.02 402.436 1194.62 390.88 1194.62 377.078L1213.18 368.289H1214.16V377.078C1214.16 385.672 1216.5 392.736 1221.19 398.27C1226.85 404.975 1234.44 408.328 1243.94 408.328C1253.25 408.328 1260.84 404.975 1266.7 398.27C1271.38 392.996 1273.73 385.932 1273.73 377.078C1273.73 368.745 1271.81 362.332 1267.96 357.84C1262.63 351.72 1254.59 348.66 1243.84 348.66C1234.92 348.66 1227.7 350.092 1222.16 352.957L1258.1 287.234H1203.32V286.258L1208.88 274.539H1284.86V275.516L1253.22 331.57C1263.24 331.57 1272.2 335.118 1280.07 342.215C1288.86 350.158 1293.26 361.714 1293.26 376.883V387.82L1243.94 425.906ZM1322.66 425.906V290.945L1298.84 302.078V290.848L1341.22 270.633H1342.2V417.117L1323.64 425.906H1322.66Z" fill="#B0AC93"/>
</g>
<defs>
<clipPath id="clip0_761_2">
<rect width="1728" height="701" fill="white"/>
</clipPath>
</defs>
</svg>
